<svg xmlns="http://www.w3.org/2000/svg" width="1200" height="630" viewBox="0 0 1200 630">
  <defs>
    <linearGradient id="bg" x1="0" y1="0" x2="1" y2="1">
      <stop offset="0" stop-color="#0b1220"/>
      <stop offset="1" stop-color="#070b14"/>
    </linearGradient>
    <radialGradient id="g1" cx="20%" cy="0%" r="60%">
      <stop offset="0" stop-color="rgba(59,130,246,0.28)"/>
      <stop offset="1" stop-color="rgba(0,0,0,0)"/>
    </radialGradient>
    <radialGradient id="g2" cx="85%" cy="15%" r="60%">
      <stop offset="0" stop-color="rgba(168,85,247,0.24)"/>
      <stop offset="1" stop-color="rgba(0,0,0,0)"/>
    </radialGradient>
  </defs>
  <rect width="1200" height="630" fill="url(#bg)"/>
  <rect width="1200" height="630" fill="url(#g1)"/>
  <rect width="1200" height="630" fill="url(#g2)"/>
  <g transform="translate(84 78) scale(0.27)">
    <svg xmlns="http://www.w3.org/2000/svg" viewBox="0 0 512 512">
  <symbol id="brand" viewBox="0 0 512 512">

  <defs>
    <linearGradient id="g" x1="0" x2="1" y1="0" y2="1">
      <stop offset="0" stop-color="#2563eb"/>
      <stop offset="1" stop-color="#7c3aed"/>
    </linearGradient>
  </defs>
  <rect x="0" y="0" width="512" height="512" rx="112" fill="url(#g)"/>
  <path d="M148 338c40-124 72-186 104-186 30 0 44 48 56 112 10 54 22 74 48 74 18 0 34-16 60-64" fill="none" stroke="#fff" stroke-width="26" stroke-linecap="round" stroke-linejoin="round"/>
  <circle cx="168" cy="176" r="14" fill="#fff" opacity=".95"/>
  <circle cx="344" cy="152" r="10" fill="#fff" opacity=".85"/>

  </symbol>
</svg>
  </g>
  <text x="84" y="320" fill="rgba(255,255,255,0.94)" font-size="64" font-family="system-ui, -apple-system, Segoe UI, Roboto, Arial" font-weight="800">Slots Math Guide</text>
  <text x="84" y="372" fill="rgba(226,232,240,0.78)" font-size="32" font-family="system-ui, -apple-system, Segoe UI, Roboto, Arial" font-weight="500">Slots. Bonuses. Withdrawals. Ontario.</text>
</svg>